#!OML:ASF F:\VICON\USERDATA\INSTALL\rory3\rory3.ASF
:FULLY-SPECIFIED
:DEGREES
319
root 4.80893 17.2709 2.85768 13.6674 -18.608 -2.12598
lowerback -1.86242 2.23486 1.87327
upperback -5.67525 2.99084 -0.0440809
thorax -4.71731 1.40096 -1.15728
lowerneck -11.5389 1.43518 -0.0308109
upperneck 43.9014 2.00817 -0.0582194
head 18.486 0.69227 0.309539
rclavicle 4.90416e-014 -5.91384e-015
rhumerus 19.7462 -7.87261 -14.712
rradius 112.778
rwrist -52.884
rhand -8.22025 -48.6128
rfingers 7.12502
rthumb 17.6969 -77.8275
lclavicle 4.90416e-014 -5.91384e-015
lhumerus 34.7934 23.198 9.53056
lradius 73.0411
lwrist 87.8487
lhand -22.2875 -37.8946
lfingers 7.12502
lthumb 4.13113 -7.95494
rfemur -46.6042 -10.0987 6.25055
rtibia 34.2267
rfoot 28.5505 -15.0415
rtoes 0.078103
lfemur -26.1731 4.42408 -30.0387
ltibia 28.8647
lfoot -15.5604 12.0096
ltoes 16.7869
320
root 4.8087 17.2689 2.84185 13.6143 -18.4473 -2.27897
lowerback -1.83569 2.25598 1.99162
upperback -5.49946 3.01972 -0.0451733
thorax -4.5411 1.4141 -1.22126
lowerneck -11.7011 1.34084 -0.139313
upperneck 43.9511 1.79544 0.171978
head 18.5561 0.619766 0.40289
rclavicle 6.0582e-014 1.73937e-015
rhumerus 19.5751 -7.86678 -14.7698
rradius 112.667
rwrist -52.7159
rhand -8.31682 -48.4004
rfingers 7.12502
rthumb 17.604 -77.6234
lclavicle 6.0582e-014 1.73937e-015
lhumerus 35.0757 22.964 9.82484
lradius 73.2782
lwrist 87.6778
lhand -23.0398 -35.6278
lfingers 7.12502
lthumb 3.40468 -5.67529
rfemur -46.9343 -9.85337 6.68044
rtibia 34.2306
rfoot 29.4039 -14.0759
rtoes -0.648926
lfemur -26.2584 4.42519 -29.83
ltibia 29.0465
lfoot -15.6265 11.8627
ltoes 16.7664
321
root 4.8067 17.269 2.82864 13.6065 -18.3584 -2.45479
lowerback -1.8275 2.26251 2.09968
upperback -5.36492 3.02857 -0.0450292
thorax -4.3991 1.41712 -1.27813
lowerneck -11.7531 1.27988 -0.171768
upperneck 43.9005 1.64924 0.308934
head 18.536 0.574847 0.447755
rclavicle 3.4281e-014 2.66371e-014
rhumerus 19.4736 -7.78605 -14.9084
rradius 112.595
rwrist -52.6718
rhand -8.44923 -48.528
rfingers 7.12502
rthumb 17.4765 -77.7624
lclavicle 3.4281e-014 2.66371e-014
lhumerus 35.1176 22.6199 9.72979
lradius 73.5077
lwrist 87.9613
lhand -23.8718 -34.69
lfingers 7.12502
lthumb 2.60112 -4.72606
rfemur -47.2493 -9.50496 7.07107
rtibia 34.2312
rfoot 29.1521 -14.5815
rtoes 0.806672
lfemur -26.377 4.50576 -29.6267
ltibia 29.2506
lfoot -15.7153 11.7225
ltoes 16.7568
322
root 4.80209 17.268 2.81797 13.5571 -18.2756 -2.48421
lowerback -1.77022 2.23397 2.04139
upperback -5.32697 2.99095 -0.0500932
thorax -4.39555 1.40105 -1.25181
lowerneck -11.6095 1.21529 -0.177772
upperneck 43.8391 1.54751 0.304037
head 18.4579 0.532726 0.425776
rclavicle 6.456e-014 2.71341e-014
rhumerus 19.3537 -7.47712 -14.9513
rradius 112.535
rwrist -52.8593
rhand -8.40956 -48.7343
rfingers 7.12502
rthumb 17.5147 -77.9653
lclavicle 6.456e-014 2.71341e-014
lhumerus 35.085 22.1795 9.67505
lradius 73.7547
lwrist 88.1829
lhand -23.9496 -33.2571
lfingers 7.12502
lthumb 2.526 -3.29228
rfemur -47.5236 -9.07359 7.23455
rtibia 34.2675
rfoot 28.584 -15.4658
rtoes 2.75061
lfemur -26.4622 4.65718 -29.5966
ltibia 29.4835
lfoot -15.8073 11.6034
ltoes 16.7389
323
root 4.79372 17.2591 2.80097 13.4719 -18.2535 -2.36874
lowerback -1.62802 2.21275 1.76272
upperback -5.32752 2.96285 -0.0659546
thorax -4.48992 1.39709 -1.11885
lowerneck -11.4636 1.14594 -0.152621
upperneck 43.9009 1.45937 0.227068
head 18.4585 0.489931 0.367259
rclavicle -7.68738e-015 -8.64713e-015
rhumerus 19.288 -7.24592 -15.1147
rradius 112.467
rwrist -52.9867
rhand -7.92771 -49.0184
rfingers 7.12502
rthumb 17.9784 -78.2074
lclavicle -7.68738e-015 -8.64713e-015
lhumerus 35.2877 21.764 10.051
lradius 73.9513
lwrist 87.7758
lhand -24.0776 -31.8485
lfingers 7.12502
lthumb 2.40244 -1.88233
rfemur -47.9529 -8.53343 7.25725
rtibia 34.3786
rfoot 29.0195 -14.8918
rtoes 1.65943
lfemur -26.6117 4.84841 -29.7054
ltibia 29.7043
lfoot -15.7978 11.4891
ltoes 16.8766
324
root 4.78603 17.2507 2.77961 13.4218 -18.0751 -2.41758
lowerback -1.426 2.15285 1.6804
upperback -5.3183 2.88745 -0.0396886
thorax -4.60222 1.3623 -1.05285
lowerneck -11.4118 1.12709 0.0388744
upperneck 44.0385 1.45738 0.0201057
head 18.5369 0.49133 0.233151
rclavicle -1.34646e-015 1.25234e-014
rhumerus 19.2561 -6.96345 -15.3285
rradius 112.322
rwrist -52.8083
rhand -7.65064 -49.3048
rfingers 7.12502
rthumb 18.245 -78.4692
lclavicle -1.34646e-015 1.25234e-014
lhumerus 35.4508 21.3068 10.3531
lradius 74.1177
lwrist 87.364
lhand -24.4843 -32.4265
lfingers 7.12502
lthumb 2.00965 -2.45619
rfemur -48.3477 -8.04363 7.44826
rtibia 34.5096
rfoot 29.6667 -14.4864
rtoes 1.49067
lfemur -26.7403 4.94065 -29.6074
ltibia 29.8779
lfoot -15.7061 11.3873
ltoes 16.5815
